Coordinates
version=1
nRows=58
nColumns=11
inDegrees=yes

Units are S.I. units (second, meters, Newtons, ...)
If the header above contains a line with 'inDegrees', this indicates whether rotational values are in degrees (yes) or radians (no).

endheader
time	pelvis_tilt	pelvis_tx	pelvis_ty	hip_flexion_l	hip_flexion_r	knee_angle_l	knee_angle_r	ankle_angle_l	ankle_angle_r	lumbar_extension
      7.02000000	     40.66220470	      0.62925136	      1.11423287	     32.73088361	     29.29987751	    -68.11881527	    -62.66026086	    -21.10929730	    -26.25612685	    -45.30121873
      7.03000000	     40.59799107	      0.62924280	      1.11413591	     32.80837456	     29.39397410	    -68.12035550	    -62.82541630	    -21.13525322	    -26.10844163	    -45.23851823
      7.04000000	     40.56475676	      0.62916786	      1.11413293	     32.85897368	     29.43854003	    -68.12542678	    -62.97267638	    -21.15485291	    -25.92096064	    -45.21747245
      7.05000000	     40.55908730	      0.62914879	      1.11421443	     32.84122625	     29.43760331	    -68.09207878	    -63.09913195	    -21.15282243	    -25.91876894	    -45.21337905
      7.06000000	     40.55473606	      0.62908739	      1.11419429	     32.85568602	     29.45551567	    -68.10438859	    -63.23296701	    -21.15922431	    -25.90377555	    -45.22623879
      7.07000000	     40.51579474	      0.62906447	      1.11417755	     32.90197243	     29.50366166	    -68.10498953	    -63.37728459	    -21.17508214	    -25.71245503	    -45.18720248
      7.08000000	     40.47027484	      0.62902876	      1.11413009	     32.96848216	     29.57281058	    -68.12064346	    -63.52078978	    -21.18218626	    -25.67439284	    -45.14883784
      7.09000000	     40.46767803	      0.62898230	      1.11421957	     32.95658545	     29.57946000	    -68.10640397	    -63.63723006	    -21.18271474	    -25.66510232	    -45.15141633
      7.10000000	     40.45003410	      0.62896466	      1.11413520	     32.97609799	     29.61849335	    -68.10180470	    -63.79138428	    -21.20129303	    -25.50874634	    -45.14449833
      7.11000000	     40.44409906	      0.62892571	      1.11419815	     32.98530366	     29.62075282	    -68.10601331	    -63.88080646	    -21.20930064	    -25.50293448	    -45.14394647
      7.12000000	     40.38765587	      0.62890735	      1.11417923	     33.04925611	     29.69749049	    -68.11023756	    -64.00227520	    -21.20675814	    -25.44748698	    -45.09840030
      7.13000000	     40.39042516	      0.62889160	      1.11415303	     33.03945514	     29.71068472	    -68.10207845	    -64.13744881	    -21.21103387	    -25.44065266	    -45.09582771
      7.14000000	     40.33372081	      0.62889607	      1.11417296	     33.10786059	     29.77115913	    -68.10872685	    -64.22200072	    -21.28392464	    -25.34737446	    -45.05122364
      7.15000000	     40.33315732	      0.62887689	      1.11417822	     33.10422423	     29.76693426	    -68.11011058	    -64.30600770	    -21.28106408	    -25.34858814	    -45.05138353
      7.16000000	     40.33342343	      0.62879987	      1.11414491	     33.11049928	     29.77759111	    -68.11160356	    -64.38636181	    -21.27971973	    -25.34938401	    -45.06639939
      7.17000000	     40.32616526	      0.62883805	      1.11418152	     33.09923021	     29.78509994	    -68.09462181	    -64.46775909	    -21.27375195	    -25.23017363	    -45.05770061
      7.18000000	     40.32324632	      0.62879988	      1.11419576	     33.10548668	     29.79175672	    -68.10450996	    -64.53537448	    -21.27454003	    -25.23866260	    -45.06246573
      7.19000000	     40.32436805	      0.62877593	      1.11415396	     33.11274882	     29.80189129	    -68.11318682	    -64.60580287	    -21.27511064	    -25.24958037	    -45.06720610
      7.20000000	     40.31822232	      0.62878894	      1.11418720	     33.11334631	     29.79990536	    -68.10958772	    -64.65485469	    -21.28152279	    -25.26181480	    -45.06189930
      7.21000000	     40.31210441	      0.62880474	      1.11423789	     33.10936986	     29.79361134	    -68.10640788	    -64.68016248	    -21.28108329	    -25.26446990	    -45.05734564
      7.22000000	     40.31638410	      0.62878654	      1.11414862	     33.12923643	     29.79095894	    -68.13896943	    -64.71231587	    -21.28309542	    -25.27958490	    -45.06342173
      7.23000000	     40.31086330	      0.62883624	      1.11422565	     33.11686758	     29.77569662	    -68.11914439	    -64.70926516	    -21.34006179	    -25.40015638	    -45.05188813
      7.24000000	     40.31047202	      0.62883432	      1.11421989	     33.11770616	     29.76678847	    -68.12675946	    -64.72554942	    -21.33846669	    -25.40167970	    -45.04954836
      7.25000000	     40.31631906	      0.62884056	      1.11421948	     33.11661022	     29.74886390	    -68.14131908	    -64.72858468	    -21.30281418	    -25.46279233	    -45.06168906
      7.26000000	     40.31885009	      0.62884108	      1.11413170	     33.12709873	     29.73826770	    -68.15800993	    -64.71142892	    -21.30326548	    -25.46489105	    -45.06108499
      7.27000000	     40.37472748	      0.62884432	      1.11415058	     33.04840879	     29.68160567	    -68.14343916	    -64.71693295	    -21.27123156	    -25.52607061	    -45.11367382
      7.28000000	     40.37507575	      0.62883726	      1.11410293	     33.06265866	     29.67128719	    -68.16020475	    -64.68772555	    -21.27258691	    -25.52634274	    -45.11487469
      7.29000000	     40.40637964	      0.62893757	      1.11427668	     32.99052703	     29.60333902	    -68.12750084	    -64.63280341	    -21.25803740	    -25.60572258	    -45.13486493
      7.30000000	     40.41423252	      0.62893587	      1.11417599	     33.00105500	     29.59847694	    -68.15149190	    -64.59987438	    -21.25819436	    -25.60989959	    -45.13868459
      7.31000000	     40.45812016	      0.62890398	      1.11415479	     32.96071389	     29.54132013	    -68.15910542	    -64.53640878	    -21.21840716	    -25.75591581	    -45.18402939
      7.32000000	     40.45103498	      0.62894440	      1.11418550	     32.96349645	     29.52620748	    -68.15740122	    -64.45958979	    -21.21386629	    -25.76168912	    -45.17609684
      7.33000000	     40.48863493	      0.62894360	      1.11419099	     32.91248946	     29.47947055	    -68.14335222	    -64.38411875	    -21.19374543	    -25.85639275	    -45.21242879
      7.34000000	     40.48881945	      0.62901433	      1.11425908	     32.91090565	     29.45128330	    -68.15148396	    -64.28791722	    -21.18754647	    -25.86277118	    -45.20064740
      7.35000000	     40.50103262	      0.62899621	      1.11414236	     32.91142602	     29.46651779	    -68.16560524	    -64.25900744	    -21.18616363	    -25.86936782	    -45.21089312
      7.36000000	     40.56930600	      0.62903744	      1.11428417	     32.82153776	     29.33493087	    -68.15170261	    -64.08919320	    -21.17044277	    -26.06215690	    -45.27351062
      7.37000000	     40.58749795	      0.62907142	      1.11428273	     32.79664125	     29.30415856	    -68.15092907	    -63.98154321	    -21.14876158	    -26.15391006	    -45.28912292
      7.38000000	     40.59928102	      0.62904776	      1.11419097	     32.81020259	     29.31659351	    -68.18495402	    -63.91294460	    -21.15100642	    -26.15592111	    -45.30185955
      7.39000000	     40.59577562	      0.62916890	      1.11429912	     32.78060986	     29.29968692	    -68.15182114	    -63.79054819	    -21.14188888	    -26.17494169	    -45.28707852
      7.40000000	     40.62747829	      0.62917581	      1.11432703	     32.74544616	     29.26210737	    -68.15868016	    -63.68549045	    -21.10976855	    -26.33637756	    -45.31811160
      7.41000000	     40.67832620	      0.62915348	      1.11432963	     32.69677394	     29.19840301	    -68.17736470	    -63.53833562	    -21.10870801	    -26.47870340	    -45.37013826
      7.42000000	     40.67818524	      0.62920108	      1.11431457	     32.70127950	     29.18882101	    -68.17954409	    -63.42020560	    -21.10749096	    -26.47899072	    -45.36624059
      7.43000000	     40.71474678	      0.62923985	      1.11437227	     32.64912385	     29.14849186	    -68.18354997	    -63.27773613	    -21.15273965	    -26.61904376	    -45.39476235
      7.44000000	     40.72445202	      0.62920153	      1.11421097	     32.67015221	     29.16090872	    -68.21903156	    -63.17202209	    -21.15374157	    -26.62739684	    -45.40771235
      7.45000000	     40.74405104	      0.62926483	      1.11429143	     32.63473359	     29.12934294	    -68.21205119	    -63.02594176	    -21.16045578	    -26.77151837	    -45.41566502
      7.46000000	     40.74956849	      0.62929718	      1.11424364	     32.63531088	     29.13112778	    -68.22973637	    -62.88653176	    -21.11401804	    -26.99963935	    -45.41490508
      7.47000000	     40.81045236	      0.62931353	      1.11438128	     32.55195410	     29.05705746	    -68.21653919	    -62.75814837	    -21.12548346	    -26.89961705	    -45.47021480
      7.48000000	     40.80909708	      0.62936340	      1.11436180	     32.55593637	     29.04829032	    -68.23341764	    -62.59487674	    -21.12072450	    -26.90337373	    -45.46611388
      7.49000000	     40.81877010	      0.62934992	      1.11424086	     32.56232276	     29.06513737	    -68.25868870	    -62.48203255	    -21.06087699	    -27.06745089	    -45.46952094
      7.50000000	     40.82344357	      0.62939993	      1.11435858	     32.54303559	     29.05635522	    -68.24934697	    -62.34071726	    -21.06717986	    -27.07064867	    -45.46181880
      7.51000000	     40.83291378	      0.62942441	      1.11419873	     32.55102504	     29.05901953	    -68.27879262	    -62.18932323	    -21.06808155	    -27.08194024	    -45.46719023
      7.52000000	     40.83755057	      0.62946339	      1.11427491	     32.53359819	     29.06110756	    -68.27767786	    -62.07410162	    -21.06593960	    -27.10359190	    -45.46396841
      7.53000000	     40.88298672	      0.62943362	      1.11429922	     32.48247951	     29.03087414	    -68.27849948	    -61.94668005	    -21.04825887	    -27.31997586	    -45.51098615
      7.54000000	     40.87869461	      0.62950045	      1.11436097	     32.47433741	     29.01848263	    -68.28069004	    -61.78337064	    -21.04960502	    -27.32109256	    -45.49962020
      7.55000000	     40.88795980	      0.62949651	      1.11432325	     32.47342533	     29.02444505	    -68.29461519	    -61.66286389	    -21.04792437	    -27.32943531	    -45.50308843
      7.56000000	     40.90580389	      0.62950785	      1.11425164	     32.46243597	     29.02558228	    -68.31223811	    -61.54581323	    -21.04905505	    -27.51843475	    -45.51378358
      7.57000000	     40.91192964	      0.62952877	      1.11427817	     32.45398940	     29.02917699	    -68.32372027	    -61.43992655	    -21.04338761	    -27.50607507	    -45.51374827
      7.58000000	     40.91739488	      0.62957179	      1.11435756	     32.43790059	     29.02443372	    -68.32222391	    -61.31257516	    -21.04571521	    -27.50200058	    -45.51056534
      7.59000000	     40.92723233	      0.62958567	      1.11426700	     32.43699916	     29.01762664	    -68.33913205	    -61.17711683	    -21.04139614	    -27.50358853	    -45.51634713
